<svg version="1.1" xmlns="http://www.w3.org/2000/svg" xmlns:xlink="http://www.w3.org/1999/xlink" width="66" height="62" viewBox="0,0,256,240.48438"><g fill="none" fill-rule="none" stroke="none" stroke-width="1" stroke-linecap="butt" stroke-linejoin="miter" stroke-miterlimit="10" stroke-dasharray="" stroke-dashoffset="0" font-family="none" font-weight="none" font-size="none" text-anchor="none" style="mix-blend-mode: normal"><g transform="translate(1.11456,0.05212) scale(3.87879,3.87879)"><path d="M49.7384,15.265l-0.399,0.3414c-1.5339,1.3084 -3.7685,1.3934 -5.398,0.2054c-3.2343,-2.4501 -7.1717,-3.8003 -11.2331,-3.8521c-4.0602,0.0525 -7.9964,1.4027 -11.2298,3.8521c-1.6295,1.188 -3.8641,1.103 -5.398,-0.2054l-0.399,-0.3414c4.8266,-4.9144 10.7686,-8.7415 17.0268,-8.7415c6.2582,0 12.1893,3.8271 17.0301,8.7415z" fill="#005aea" fill-rule="evenodd"></path><path d="M22.8195,55.7214c0.2483,1.2741 -0.0886,2.5921 -0.9183,3.5921c-0.8297,1 -2.0649,1.5769 -3.3665,1.5723h-4.3502c-4.81987,0.0024 -8.72947,-3.8915 -8.73308,-8.698v-10.8724c0.00361,-4.8065 3.91321,-8.7004 8.73308,-8.698h4.3502c1.3016,-0.0046 2.5368,0.5723 3.3665,1.5723c0.8297,1 1.1666,2.318 0.9183,3.5921c-0.5962,2.9545 -0.9246,5.9566 -0.9812,8.9698c0.0566,3.0132 0.385,6.0153 0.9812,8.9698z" fill="#008bea" fill-rule="evenodd"></path><path d="M59.9652,41.3154v10.8724c-0.0036,4.8065 -3.9132,8.7004 -8.7331,8.698h-4.3502c-1.3015,0.0046 -2.5367,-0.5723 -3.3664,-1.5723c-0.8297,-1 -1.1667,-2.318 -0.9184,-3.5921c0.5962,-2.9545 0.9246,-5.9566 0.9813,-8.9698c-0.0567,-3.0132 -0.3851,-6.0153 -0.9813,-8.9698c-0.2483,-1.2741 0.0887,-2.5921 0.9184,-3.5921c0.8297,-1 2.0649,-1.5769 3.3664,-1.5723h4.3502c4.8199,-0.0024 8.7295,3.8915 8.7331,8.698z" fill="#008bea" fill-rule="evenodd"></path><path d="M62.015,26.1156c-0.2868,0.3124 -0.631,0.5671 -1.014,0.7502c-0.2953,0.1416 -0.6122,0.2334 -0.9376,0.2718c-1.42,0.2095 -2.8103,-0.5322 -3.4235,-1.8265c-1.7219,-3.7095 -4.0547,-7.1052 -6.9014,-10.0462c-4.8409,-4.9143 -10.772,-7.6542 -17.0302,-7.6542c-6.2581,0 -12.2002,2.7399 -17.0301,7.6542c-2.8468,2.941 -5.1795,6.3367 -6.90143,10.0462c-0.53913,1.1459 -1.69625,1.8756 -2.96555,1.87c-0.16459,0.0018 -0.32893,-0.0128 -0.49063,-0.0435c-0.31386,-0.0436 -0.61908,-0.1353 -0.90493,-0.2718c-0.39622,-0.186 -0.74903,-0.4527 -1.03576,-0.7828c-0.87336,-0.974 -1.07535,-2.3754 -0.51243,-3.5553c6.36722,-13.42748 17.52073,-21.44048 29.84083,-21.44048c12.3202,0 23.4737,8.013 29.8518,21.44048c0.5596,1.1963 0.3447,2.6106 -0.5451,3.5879z" fill="#008bea" fill-rule="evenodd"></path><path d="M9.81251,51.1006c-0.60215,0 -1.09028,-0.4868 -1.09028,-1.0873v-7.6107c0,-0.6005 0.48813,-1.0872 1.09028,-1.0872c0.60209,0 1.09029,0.4867 1.09029,1.0872v7.6107c0,0.6005 -0.4882,1.0873 -1.09029,1.0873z" fill="#ffffff" fill-rule="evenodd"></path><path d="M11.2964,56.5368c-0.2645,-0.0003 -0.5199,-0.0965 -0.7185,-0.2707c-0.4456,-0.3893 -0.82423,-0.8488 -1.12081,-1.3602c-0.21937,-0.337 -0.23449,-0.7671 -0.03931,-1.1186c0.19517,-0.3515 0.56881,-0.567 0.97162,-0.5604c0.4029,0.0065 0.7692,0.2341 0.9528,0.5918c0.179,0.3069 0.4069,0.5827 0.6749,0.8165c0.3391,0.2992 0.4575,0.7763 0.2974,1.1987c-0.16,0.4224 -0.5653,0.7022 -1.0181,0.7029z" fill="#ffffff" fill-rule="evenodd"></path><path d="M13.0834,57.4838c-0.0927,0.0001 -0.1851,-0.0116 -0.2748,-0.0348c-0.8268,-0.2155 -1.5915,-0.6209 -2.2329,-1.184c-0.3031,-0.2538 -0.4445,-0.6514 -0.3695,-1.0389c0.0751,-0.3875 0.3548,-0.704 0.7309,-0.827c0.3761,-0.1229 0.7894,-0.033 1.08,0.235c0.3849,0.3378 0.8438,0.5809 1.3399,0.71c0.5313,0.1374 0.8774,0.6471 0.8079,1.19c-0.0694,0.5429 -0.5327,0.9497 -1.0815,0.9497z" fill="#ffffff" fill-rule="evenodd"></path><path d="M47.7999,51.1006c-0.0305,0 -0.0599,0 -0.0894,0c-0.2883,-0.0233 -0.5555,-0.1599 -0.7428,-0.3797c-0.1873,-0.2198 -0.2794,-0.5049 -0.2558,-0.7924c0.0915,-1.1111 0.1373,-2.1745 0.1373,-3.1736c-0.0111,-1.7731 -0.1305,-3.5439 -0.3576,-5.3025c-0.0559,-0.5858 0.3656,-1.1097 0.9512,-1.1821c0.5856,-0.0724 1.1227,0.3329 1.2119,0.9146c0.2388,1.8462 0.364,3.7052 0.3751,5.5667c0,1.0546 -0.0491,2.1821 -0.1439,3.3498c-0.046,0.5642 -0.5184,0.9988 -1.086,0.9992z" fill="#ffffff" fill-rule="evenodd"></path><path d="M46.8819,57.6241c-0.0691,-0.0001 -0.1381,-0.0067 -0.206,-0.0196c-0.5908,-0.113 -0.9781,-0.6817 -0.8657,-1.271c0.0687,-0.3631 0.1352,-0.7198 0.1973,-1.0742c0.1114,-0.5851 0.674,-0.972 1.262,-0.8678c0.588,0.1043 0.9825,0.6608 0.8848,1.2483c-0.0654,0.3632 -0.1309,0.7307 -0.2028,1.1014c-0.0983,0.5119 -0.5469,0.8823 -1.0696,0.8829z" fill="#ffffff" fill-rule="evenodd"></path><path d="M1.57546,45.0566c0.74062,0.8047 1.71433,1.3591 2.78566,1.5863v5.5449c0.01022,5.406 4.40674,9.7835 9.82778,9.7852h4.3458c1.6263,0.0017 3.1684,-0.7208 4.2053,-1.9702c1.0369,-1.2493 1.4603,-2.8951 1.1545,-4.488c-0.5937,-2.8849 -0.9167,-5.8186 -0.9649,-8.7632c0.0482,-2.9446 0.3712,-5.8783 0.9649,-8.7632c0.3058,-1.5929 -0.1176,-3.2387 -1.1545,-4.488c-1.0369,-1.2494 -2.579,-1.9719 -4.2053,-1.9703h-4.3458c-5.42104,0.0018 -9.81756,4.3793 -9.82778,9.7853v3.054c-0.45009,-0.1652 -0.85467,-0.4342 -1.18077,-0.785c-0.59598,-0.6423 -0.89147,-1.5061 -0.81335,-2.3778c0.36304,-4.4422 1.32233,-8.8157 2.85217,-13.0034c0.19559,0.0354 0.3934,0.0572 0.59202,0.0652c1.68913,0 3.22725,-0.9701 3.95116,-2.492c1.54395,-3.2996 3.58285,-6.3455 6.04665,-9.0328c1.8974,1.3334 4.4364,1.3107 6.3095,-0.0565c3.0441,-2.3201 6.7587,-3.5969 10.5898,-3.6401c3.8319,0.0439 7.5469,1.3219 10.591,3.6433c1.8691,1.3789 4.4161,1.4004 6.3083,0.0533c2.4635,2.6867 4.5025,5.7318 6.0467,9.0307c0.745,1.7623 2.6169,2.7727 4.5039,2.431c1.559,4.5588 2.5338,9.2958 2.9012,14.0984c0.0738,0.8718 -0.2252,1.7342 -0.8231,2.3745c-0.3261,0.3498 -0.7308,0.6173 -1.1808,0.7807v-4.1435c-0.0102,-5.406 -4.4067,-9.7835 -9.8277,-9.7853h-4.3459c-1.6263,-0.0016 -3.1684,0.7209 -4.2053,1.9703c-1.0369,1.2493 -1.4602,2.8951 -1.1545,4.488c0.5943,2.8848 0.9177,5.8185 0.966,8.7632c-0.0483,2.9446 -0.3717,5.8784 -0.966,8.7632c-0.3057,1.5929 0.1176,3.2387 1.1545,4.488c1.0369,1.2494 2.579,1.9719 4.2053,1.9702h4.3459c5.421,-0.0017 9.8175,-4.3792 9.8277,-9.7852v-4.4577c1.07,-0.2196 2.0435,-0.7697 2.7824,-1.5721c1.0055,-1.0893 1.5111,-2.5468 1.3956,-4.0228c-0.3751,-5.0181 -1.3983,-9.9668 -3.0441,-14.7235c1.6688,-1.2356 2.2353,-3.4716 1.3552,-5.3493c-6.5602,-13.81564 -18.0899,-22.0624 -30.8363,-22.0624c-12.7464,0 -24.275,8.24785 -30.82538,22.0602c-0.88638,1.8622 -0.34005,4.0892 1.30833,5.333c-1.60868,4.3886 -2.61681,8.9735 -2.99717,13.6308c-0.12365,1.4775 0.37711,2.9393 1.38138,4.0326zM6.54167,41.3154c0.00902,-4.2055 3.42997,-7.6102 7.64723,-7.6108h4.3458c0.976,-0.0017 1.9018,0.4313 2.5245,1.1808c0.6227,0.7495 0.8772,1.7371 0.694,2.6931c-0.6201,3.0199 -0.9563,6.0909 -1.0041,9.1731c0.0478,3.0822 0.384,6.1532 1.0041,9.1731c0.1832,0.956 -0.0713,1.9436 -0.694,2.6931c-0.6227,0.7495 -1.5485,1.1825 -2.5245,1.1808h-4.3458c-4.21726,-0.0006 -7.63821,-3.4053 -7.64723,-7.6108zM58.875,52.1878c-0.0091,4.2055 -3.43,7.6102 -7.6472,7.6108h-4.3459c-0.9758,0.0013 -1.9013,-0.4318 -2.5237,-1.1812c-0.6224,-0.7495 -0.8768,-1.7369 -0.6937,-2.6927c0.6197,-3.02 0.9559,-6.0909 1.0042,-9.1731c-0.0483,-3.0822 -0.3845,-6.1531 -1.0042,-9.1731c-0.1831,-0.9558 0.0713,-1.9432 0.6937,-2.6927c0.6224,-0.7494 1.5479,-1.1826 2.5237,-1.1812h4.3459c4.2172,0.0006 7.6381,3.4053 7.6472,7.6108zM44.5836,14.9333c-3.4247,-2.5784 -7.5845,-4.0009 -11.8753,-4.0608c-4.2907,0.0599 -8.4506,1.4824 -11.8753,4.0608c-1.0119,0.7404 -2.3607,0.8344 -3.466,0.2414c0.1592,-0.1479 0.3151,-0.3023 0.4765,-0.4458c0.266,-0.237 0.5342,-0.4697 0.8046,-0.6936c0.3336,-0.2762 0.6716,-0.5371 1.0118,-0.7916c0.2769,-0.2076 0.5538,-0.4131 0.8362,-0.6066c0.3467,-0.2381 0.6989,-0.4599 1.0532,-0.6774c0.2846,-0.1739 0.5692,-0.3512 0.8581,-0.5121c0.362,-0.2022 0.7305,-0.3838 1.099,-0.5643c0.2889,-0.1413 0.5767,-0.2881 0.8722,-0.4153c0.3816,-0.1674 0.7697,-0.3088 1.1579,-0.4523c0.2878,-0.10871 0.5724,-0.21744 0.8624,-0.31529c0.4099,-0.13155 0.8264,-0.23484 1.2429,-0.34139c0.2748,-0.06959 0.5451,-0.15222 0.8232,-0.21093c0.4655,-0.09894 0.9354,-0.16308 1.4053,-0.22832c0.2344,-0.03262 0.4656,-0.08263 0.7011,-0.10873c1.4208,-0.15366 2.8541,-0.15366 4.275,0c0.2355,0.02392 0.4666,0.07394 0.701,0.10873c0.4688,0.06524 0.9387,0.13047 1.4021,0.22832c0.2758,0.05871 0.5451,0.14134 0.8221,0.21093c0.4164,0.10872 0.8329,0.20984 1.2451,0.34248c0.2867,0.09242 0.5691,0.20658 0.8536,0.312c0.3904,0.1436 0.7818,0.2871 1.1666,0.4556c0.2901,0.1261 0.5746,0.2718 0.8603,0.411c0.3728,0.1826 0.7446,0.3653 1.1099,0.5697c0.2867,0.1587 0.568,0.3338 0.8504,0.5077c0.3565,0.2175 0.713,0.4415 1.063,0.6828c0.2791,0.1914 0.555,0.3958 0.8308,0.6013c0.3423,0.2555 0.6825,0.5186 1.0172,0.7958c0.2715,0.2229 0.5386,0.4556 0.8046,0.6926c0.1614,0.1435 0.3184,0.2968 0.4787,0.4458c-1.1061,0.5936 -2.456,0.4992 -3.4682,-0.2425zM3.85305,22.992c6.17755,-13.035 16.97125,-20.81751 28.85525,-20.81751c11.884,0 22.6778,7.78251 28.8651,20.81531c0.5074,1.0857 0.0434,2.3763 -1.0401,2.8932c-0.0153,0.0076 -0.0327,0.0109 -0.0491,0.0185h-0.0076h-0.0055c-1.0798,0.4763 -2.3434,0.0056 -2.8456,-1.0601c-1.773,-3.82 -4.1763,-7.3162 -7.1097,-10.343c-5.1428,-5.21549 -11.2996,-7.97492 -17.8075,-7.97492c-1.2142,-0.00053 -2.4265,0.09618 -3.6252,0.28921c-3.2422,0.5372 -6.3378,1.73808 -9.0918,3.52701c-0.2246,0.1424 -0.4448,0.2968 -0.6661,0.448c-0.132,0.0902 -0.265,0.1739 -0.3947,0.2663c-1.4449,1.0281 -2.7949,2.1826 -4.034,3.4499c-2.9329,3.0274 -5.33577,6.5239 -7.10864,10.344c-0.51356,1.0508 -1.76309,1.5156 -2.84126,1.0568c-0.00654,0 -0.00981,-0.0087 -0.01636,-0.0108c-0.00654,-0.0022 -0.01635,0 -0.02507,0l-0.02181,-0.0077c-1.08471,-0.5166 -1.54557,-1.8112 -1.03031,-2.8942z" fill="#000000" fill-rule="nonzero"></path></g></g></svg>