<svg width="66" height="62" viewBox="0 0 66 62" fill="none" xmlns="http://www.w3.org/2000/svg">
<path fill-rule="evenodd" clip-rule="evenodd" d="M49.7384 15.265L49.3394 15.6064C47.8055 16.9148 45.5709 16.9998 43.9414 15.8118C40.7071 13.3617 36.7697 12.0115 32.7083 11.9597C28.6481 12.0122 24.7119 13.3624 21.4785 15.8118C19.849 16.9998 17.6144 16.9148 16.0805 15.6064L15.6815 15.265C20.5081 10.3506 26.4501 6.5235 32.7083 6.5235C38.9665 6.5235 44.8976 10.3506 49.7384 15.265Z" fill="#092366"/>
<path fill-rule="evenodd" clip-rule="evenodd" d="M22.8195 55.7214C23.0678 56.9955 22.7309 58.3135 21.9012 59.3135C21.0715 60.3135 19.8363 60.8904 18.5347 60.8858H14.1845C9.36463 60.8882 5.45503 56.9943 5.45142 52.1878V41.3154C5.45503 36.5089 9.36463 32.615 14.1845 32.6174H18.5347C19.8363 32.6128 21.0715 33.1897 21.9012 34.1897C22.7309 35.1897 23.0678 36.5077 22.8195 37.7818C22.2233 40.7363 21.8949 43.7384 21.8383 46.7516C21.8949 49.7648 22.2233 52.7669 22.8195 55.7214Z" fill="#3F6B8F"/>
<path fill-rule="evenodd" clip-rule="evenodd" d="M59.9652 41.3154V52.1878C59.9616 56.9943 56.052 60.8882 51.2321 60.8858H46.8819C45.5804 60.8904 44.3452 60.3135 43.5155 59.3135C42.6858 58.3135 42.3488 56.9955 42.5971 55.7214C43.1933 52.7669 43.5217 49.7648 43.5784 46.7516C43.5217 43.7384 43.1933 40.7363 42.5971 37.7818C42.3488 36.5077 42.6858 35.1897 43.5155 34.1897C44.3452 33.1897 45.5804 32.6128 46.8819 32.6174H51.2321C56.052 32.615 59.9616 36.5089 59.9652 41.3154Z" fill="#3F6B8F"/>
<path fill-rule="evenodd" clip-rule="evenodd" d="M62.015 26.1156C61.7282 26.428 61.384 26.6827 61.001 26.8658C60.7057 27.0074 60.3888 27.0992 60.0634 27.1376C58.6434 27.3471 57.2531 26.6054 56.6399 25.3111C54.918 21.6016 52.5852 18.2059 49.7385 15.2649C44.8976 10.3506 38.9665 7.6107 32.7083 7.6107C26.4502 7.6107 20.5081 10.3506 15.6782 15.2649C12.8314 18.2059 10.4987 21.6016 8.77677 25.3111C8.23764 26.457 7.08052 27.1867 5.81122 27.1811C5.64663 27.1829 5.48229 27.1683 5.32059 27.1376C5.00673 27.094 4.70151 27.0023 4.41566 26.8658C4.01944 26.6798 3.66663 26.4131 3.3799 26.083C2.50654 25.109 2.30455 23.7076 2.86747 22.5277C9.23469 9.10022 20.3882 1.08722 32.7083 1.08722C45.0285 1.08722 56.182 9.10022 62.5601 22.5277C63.1197 23.724 62.9048 25.1383 62.015 26.1156Z" fill="#3F6B8F"/>
<path fill-rule="evenodd" clip-rule="evenodd" d="M9.81251 51.1006C9.21036 51.1006 8.72223 50.6138 8.72223 50.0133V42.4026C8.72223 41.8021 9.21036 41.3154 9.81251 41.3154C10.4146 41.3154 10.9028 41.8021 10.9028 42.4026V50.0133C10.9028 50.6138 10.4146 51.1006 9.81251 51.1006Z" fill="white"/>
<path fill-rule="evenodd" clip-rule="evenodd" d="M11.2964 56.5368C11.0319 56.5365 10.7765 56.4403 10.5779 56.2661C10.1323 55.8768 9.75367 55.4173 9.45709 54.9059C9.23772 54.5689 9.2226 54.1388 9.41778 53.7873C9.61295 53.4358 9.98659 53.2203 10.3894 53.2269C10.7923 53.2334 11.1586 53.461 11.3422 53.8187C11.5212 54.1256 11.7491 54.4014 12.0171 54.6352C12.3562 54.9344 12.4746 55.4115 12.3145 55.8339C12.1545 56.2563 11.7492 56.5361 11.2964 56.5368Z" fill="white"/>
<path fill-rule="evenodd" clip-rule="evenodd" d="M13.0834 57.4838C12.9907 57.4839 12.8983 57.4722 12.8086 57.449C11.9818 57.2335 11.2171 56.8281 10.5757 56.265C10.2726 56.0112 10.1312 55.6136 10.2062 55.2261C10.2813 54.8386 10.561 54.5221 10.9371 54.3991C11.3132 54.2762 11.7265 54.3661 12.0171 54.6341C12.402 54.9719 12.8609 55.215 13.357 55.3441C13.8883 55.4815 14.2344 55.9912 14.1649 56.5341C14.0955 57.077 13.6322 57.4838 13.0834 57.4838Z" fill="white"/>
<path fill-rule="evenodd" clip-rule="evenodd" d="M47.7999 51.1006C47.7694 51.1006 47.74 51.1006 47.7105 51.1006C47.4222 51.0773 47.155 50.9407 46.9677 50.7209C46.7804 50.5011 46.6883 50.216 46.7119 49.9285C46.8034 48.8174 46.8492 47.754 46.8492 46.7549C46.8381 44.9818 46.7187 43.211 46.4916 41.4524C46.4357 40.8666 46.8572 40.3427 47.4428 40.2703C48.0284 40.1979 48.5655 40.6032 48.6547 41.1849C48.8935 43.0311 49.0187 44.8901 49.0298 46.7516C49.0298 47.8062 48.9807 48.9337 48.8859 50.1014C48.8399 50.6656 48.3675 51.1002 47.7999 51.1006Z" fill="white"/>
<path fill-rule="evenodd" clip-rule="evenodd" d="M46.8819 57.6241C46.8128 57.624 46.7438 57.6174 46.6759 57.6045C46.0851 57.4915 45.6978 56.9228 45.8102 56.3335C45.8789 55.9704 45.9454 55.6137 46.0075 55.2593C46.1189 54.6742 46.6815 54.2873 47.2695 54.3915C47.8575 54.4958 48.252 55.0523 48.1543 55.6398C48.0889 56.003 48.0234 56.3705 47.9515 56.7412C47.8532 57.2531 47.4046 57.6235 46.8819 57.6241Z" fill="white"/>
<path d="M1.57546 45.0566C2.31608 45.8613 3.28979 46.4157 4.36112 46.6429V52.1878C4.37134 57.5938 8.76786 61.9713 14.1889 61.973H18.5347C20.161 61.9747 21.7031 61.2522 22.74 60.0028C23.7769 58.7535 24.2003 57.1077 23.8945 55.5148C23.3008 52.6299 22.9778 49.6962 22.9296 46.7516C22.9778 43.807 23.3008 40.8733 23.8945 37.9884C24.2003 36.3955 23.7769 34.7497 22.74 33.5004C21.7031 32.251 20.161 31.5285 18.5347 31.5301H14.1889C8.76786 31.5319 4.37134 35.9094 4.36112 41.3154V44.3694C3.91103 44.2042 3.50645 43.9352 3.18035 43.5844C2.58437 42.9421 2.28888 42.0783 2.367 41.2066C2.73004 36.7644 3.68933 32.3909 5.21917 28.2032C5.41476 28.2386 5.61257 28.2604 5.81119 28.2684C7.50032 28.2684 9.03844 27.2983 9.76235 25.7764C11.3063 22.4768 13.3452 19.4309 15.809 16.7436C17.7064 18.077 20.2454 18.0543 22.1185 16.6871C25.1626 14.367 28.8772 13.0902 32.7083 13.047C36.5402 13.0909 40.2552 14.3689 43.2993 16.6903C45.1684 18.0692 47.7154 18.0907 49.6076 16.7436C52.0711 19.4303 54.1101 22.4754 55.6543 25.7743C56.3993 27.5366 58.2712 28.547 60.1582 28.2053C61.7172 32.7641 62.692 37.5011 63.0594 42.3037C63.1332 43.1755 62.8342 44.0379 62.2363 44.6782C61.9102 45.028 61.5055 45.2955 61.0555 45.4589V41.3154C61.0453 35.9094 56.6488 31.5319 51.2278 31.5301H46.8819C45.2556 31.5285 43.7135 32.251 42.6766 33.5004C41.6397 34.7497 41.2164 36.3955 41.5221 37.9884C42.1164 40.8732 42.4398 43.8069 42.4881 46.7516C42.4398 49.6962 42.1164 52.63 41.5221 55.5148C41.2164 57.1077 41.6397 58.7535 42.6766 60.0028C43.7135 61.2522 45.2556 61.9747 46.8819 61.973H51.2278C56.6488 61.9713 61.0453 57.5938 61.0555 52.1878V47.7301C62.1255 47.5105 63.099 46.9604 63.8379 46.158C64.8434 45.0687 65.349 43.6112 65.2335 42.1352C64.8584 37.1171 63.8352 32.1684 62.1894 27.4117C63.8582 26.1761 64.4247 23.9401 63.5446 22.0624C56.9844 8.24676 45.4547 0 32.7083 0C19.9619 0 8.4333 8.24785 1.88292 22.0602C0.996537 23.9224 1.54287 26.1494 3.19125 27.3932C1.58257 31.7818 0.574438 36.3667 0.194081 41.024C0.070433 42.5015 0.571194 43.9633 1.57546 45.0566ZM6.54167 41.3154C6.55069 37.1099 9.97164 33.7052 14.1889 33.7046H18.5347C19.5107 33.7029 20.4365 34.1359 21.0592 34.8854C21.6819 35.6349 21.9364 36.6225 21.7532 37.5785C21.1331 40.5984 20.7969 43.6694 20.7491 46.7516C20.7969 49.8338 21.1331 52.9048 21.7532 55.9247C21.9364 56.8807 21.6819 57.8683 21.0592 58.6178C20.4365 59.3673 19.5107 59.8003 18.5347 59.7986H14.1889C9.97164 59.798 6.55069 56.3933 6.54167 52.1878V41.3154ZM58.875 52.1878C58.8659 56.3933 55.445 59.798 51.2278 59.7986H46.8819C45.9061 59.7999 44.9806 59.3668 44.3582 58.6174C43.7358 57.8679 43.4814 56.8805 43.6645 55.9247C44.2842 52.9047 44.6204 49.8338 44.6687 46.7516C44.6204 43.6694 44.2842 40.5985 43.6645 37.5785C43.4814 36.6227 43.7358 35.6353 44.3582 34.8858C44.9806 34.1364 45.9061 33.7032 46.8819 33.7046H51.2278C55.445 33.7052 58.8659 37.1099 58.875 41.3154V52.1878ZM44.5836 14.9333C41.1589 12.3549 36.9991 10.9324 32.7083 10.8725C28.4176 10.9324 24.2577 12.3549 20.833 14.9333C19.8211 15.6737 18.4723 15.7677 17.367 15.1747C17.5262 15.0268 17.6821 14.8724 17.8435 14.7289C18.1095 14.4919 18.3777 14.2592 18.6481 14.0353C18.9817 13.7591 19.3197 13.4982 19.6599 13.2437C19.9368 13.0361 20.2137 12.8306 20.4961 12.6371C20.8428 12.399 21.195 12.1772 21.5493 11.9597C21.8339 11.7858 22.1185 11.6085 22.4074 11.4476C22.7694 11.2454 23.1379 11.0638 23.5064 10.8833C23.7953 10.742 24.0831 10.5952 24.3786 10.468C24.7602 10.3006 25.1483 10.1592 25.5365 10.0157C25.8243 9.90699 26.1089 9.79826 26.3989 9.70041C26.8088 9.56886 27.2253 9.46557 27.6418 9.35902C27.9166 9.28943 28.1869 9.2068 28.465 9.14809C28.9305 9.04915 29.4004 8.98501 29.8703 8.91977C30.1047 8.88715 30.3359 8.83714 30.5714 8.81104C31.9922 8.65738 33.4255 8.65738 34.8464 8.81104C35.0819 8.83496 35.313 8.88498 35.5474 8.91977C36.0162 8.98501 36.4861 9.05024 36.9495 9.14809C37.2253 9.2068 37.4946 9.28943 37.7716 9.35902C38.188 9.46774 38.6045 9.56886 39.0167 9.7015C39.3034 9.79392 39.5858 9.90808 39.8703 10.0135C40.2607 10.1571 40.6521 10.3006 41.0369 10.4691C41.327 10.5952 41.6115 10.7409 41.8972 10.8801C42.27 11.0627 42.6418 11.2454 43.0071 11.4498C43.2938 11.6085 43.5751 11.7836 43.8575 11.9575C44.214 12.175 44.5705 12.399 44.9205 12.6403C45.1996 12.8317 45.4755 13.0361 45.7513 13.2416C46.0936 13.4971 46.4338 13.7602 46.7685 14.0374C47.04 14.2603 47.3071 14.493 47.5731 14.73C47.7345 14.8735 47.8915 15.0268 48.0518 15.1758C46.9457 15.7694 45.5958 15.675 44.5836 14.9333ZM3.85305 22.992C10.0306 9.957 20.8243 2.17449 32.7083 2.17449C44.5923 2.17449 55.3861 9.957 61.5734 22.9898C62.0808 24.0755 61.6168 25.3661 60.5333 25.883C60.518 25.8906 60.5006 25.8939 60.4842 25.9015H60.4766H60.4711C59.3913 26.3778 58.1277 25.9071 57.6255 24.8414C55.8525 21.0214 53.4492 17.5252 50.5158 14.4984C45.373 9.28291 39.2162 6.52348 32.7083 6.52348C31.4941 6.52295 30.2818 6.61966 29.0831 6.81269C25.8409 7.34989 22.7453 8.55077 19.9913 10.3397C19.7667 10.4821 19.5465 10.6365 19.3252 10.7877C19.1932 10.8779 19.0602 10.9616 18.9305 11.054C17.4856 12.0821 16.1356 13.2366 14.8965 14.5039C11.9636 17.5313 9.56073 21.0278 7.78786 24.8479C7.2743 25.8987 6.02477 26.3635 4.9466 25.9047C4.94006 25.9047 4.93679 25.896 4.93024 25.8939C4.9237 25.8917 4.91389 25.8939 4.90517 25.8939L4.88336 25.8862C3.79865 25.3696 3.33779 24.075 3.85305 22.992Z" fill="black"/>
</svg>
